<?xml version="1.0" encoding="iso-8859-1"?>
<!-- Uploaded to: SVG Repo, www.svgrepo.com, Generator: SVG Repo Mixer Tools -->
<svg fill="#000000" version="1.1" id="Layer_1" xmlns="http://www.w3.org/2000/svg" xmlns:xlink="http://www.w3.org/1999/xlink" 
	 viewBox="0 0 512 512" xml:space="preserve">
<g>
	<g>
		<rect x="49.791" y="49.093" width="21.68" height="21.68"/>
	</g>
</g>
<g>
	<g>
		<rect x="88.799" y="49.093" width="21.68" height="21.68"/>
	</g>
</g>
<g>
	<g>
		<rect x="49.791" y="199.532" width="21.68" height="21.68"/>
	</g>
</g>
<g>
	<g>
		<rect x="88.799" y="199.532" width="21.68" height="21.68"/>
	</g>
</g>
<g>
	<g>
		<rect x="49.791" y="351.378" width="21.68" height="21.68"/>
	</g>
</g>
<g>
	<g>
		<rect x="88.799" y="351.378" width="21.68" height="21.68"/>
	</g>
</g>
<g>
	<g>
		<path d="M394.068,276.12c-7.751,0-15.399,0.746-22.892,2.223v-8.056h39.691V150.452h-39.691v-30.599h39.691V0.015H0v119.837
			h39.692v30.599H0v119.836h39.692v30.6H0v119.837h39.692v61.944h276.58c21.533,18.949,48.907,29.315,77.796,29.315
			c65.027,0,117.932-52.904,117.932-117.932C512,329.025,459.097,276.12,394.068,276.12z M31.345,88.508v-0.001V31.36h348.177
			v57.147h-8.346H39.692H31.345z M339.831,119.852v30.599H71.037v-30.599H339.831z M31.345,238.943v-57.146h8.347h331.484h8.346
			v57.146H31.345z M339.831,270.895v18.418c-0.426,0.22-0.839,0.465-1.261,0.691c-0.918,0.49-1.833,0.985-2.737,1.499
			c-0.606,0.345-1.205,0.7-1.804,1.055c-0.868,0.514-1.731,1.038-2.587,1.575c-0.6,0.376-1.195,0.758-1.788,1.145
			c-0.845,0.552-1.681,1.117-2.513,1.691c-0.575,0.397-1.149,0.793-1.718,1.201c-0.849,0.609-1.687,1.237-2.522,1.87
			c-0.378,0.287-0.769,0.557-1.144,0.848H71.037v-29.993H339.831z M71.037,451.322v-30.597h208.148
			c0.043,0.185,0.095,0.368,0.139,0.552c0.115,0.483,0.241,0.962,0.363,1.443c0.26,1.035,0.531,2.068,0.818,3.095
			c0.15,0.537,0.306,1.073,0.465,1.608c0.296,1,0.607,1.995,0.929,2.986c0.163,0.5,0.322,1.002,0.491,1.499
			c0.401,1.18,0.823,2.351,1.261,3.516c0.108,0.285,0.205,0.574,0.315,0.858c0.554,1.44,1.137,2.866,1.746,4.283
			c0.168,0.392,0.35,0.778,0.522,1.168c0.457,1.031,0.924,2.057,1.409,3.074c0.235,0.493,0.479,0.982,0.721,1.472
			c0.459,0.927,0.928,1.846,1.411,2.76c0.255,0.484,0.511,0.968,0.772,1.448c0.151,0.277,0.293,0.559,0.445,0.835H71.037z
			 M292.901,333.48c-0.372,0.622-0.738,1.246-1.098,1.874c-0.218,0.38-0.437,0.76-0.651,1.142c-0.382,0.683-0.754,1.373-1.123,2.064
			c-0.174,0.326-0.352,0.649-0.522,0.977c-0.53,1.016-1.047,2.036-1.546,3.067c-0.044,0.091-0.085,0.183-0.129,0.273
			c-0.456,0.946-0.898,1.896-1.328,2.853c-0.156,0.346-0.304,0.695-0.456,1.042c-0.311,0.712-0.619,1.424-0.916,2.142
			c-0.164,0.396-0.324,0.794-0.485,1.192c-0.276,0.689-0.546,1.378-0.81,2.072c-0.151,0.398-0.303,0.796-0.45,1.196
			c-0.271,0.736-0.532,1.476-0.788,2.217c-0.121,0.351-0.247,0.701-0.365,1.054c-0.346,1.032-0.679,2.069-0.996,3.112
			c-0.018,0.058-0.038,0.117-0.055,0.176c-0.334,1.105-0.65,2.218-0.952,3.334c-0.09,0.334-0.173,0.67-0.261,1.005
			c-0.205,0.785-0.405,1.571-0.595,2.36c-0.097,0.408-0.19,0.816-0.283,1.225c-0.167,0.735-0.328,1.471-0.482,2.21
			c-0.087,0.417-0.172,0.834-0.255,1.252c-0.15,0.767-0.292,1.535-0.427,2.306c-0.067,0.378-0.137,0.755-0.2,1.134
			c-0.162,0.974-0.309,1.951-0.447,2.93c-0.024,0.171-0.052,0.341-0.076,0.512c-0.157,1.155-0.295,2.312-0.417,3.473
			c-0.033,0.318-0.06,0.636-0.09,0.955c-0.083,0.843-0.159,1.687-0.223,2.535c-0.031,0.415-0.056,0.83-0.084,1.245
			c-0.05,0.764-0.093,1.529-0.128,2.295c-0.01,0.227-0.029,0.451-0.038,0.678H39.692h-8.347v-0.001v-57.147h8.347v0.607h253.584
			C293.148,333.05,293.028,333.268,292.901,333.48z M420.18,476.608c-8.244,2.613-17.014,4.032-26.112,4.032
			c-8.382,0-16.588-1.199-24.427-3.495v-33.77h50.539V476.608z M371.835,412.029l14.531-20.897h17.096l14.527,20.897H371.835z
			 M451.525,458.754v-53.396l-56.607-81.429l-56.622,81.428v54.892c-1.675-1.415-3.318-2.879-4.898-4.43
			c-5.353-5.26-9.968-11.164-13.756-17.535c-6.315-10.619-10.337-22.53-11.659-34.896c-0.333-3.113-0.502-6.252-0.502-9.332
			c0-4.673,0.378-9.302,1.116-13.851c3.075-18.952,12.4-36.484,26.663-49.695c0.333-0.308,0.674-0.609,1.012-0.913
			c0.24-0.215,0.475-0.435,0.718-0.648l0.013-0.01l0.801-0.691c0.819-0.701,1.647-1.391,2.489-2.058
			c4.902-3.891,10.197-7.212,15.801-9.951c1.747-0.854,3.517-1.663,5.323-2.399c10.374-4.227,21.36-6.371,32.651-6.371
			c47.744,0,86.587,38.843,86.587,86.588C480.655,419.764,469.379,442.88,451.525,458.754z"/>
	</g>
</g>
</svg>